<svg width="50" height="50" viewBox="0 0 50 50" fill="none" xmlns="http://www.w3.org/2000/svg">
<path d="M16.2561 11.9396C17.4832 11.9396 18.5873 12.0458 19.5998 12.2625C20.6061 12.4771 21.4644 12.8312 22.1894 13.3208C22.904 13.8104 23.4623 14.4604 23.8644 15.2771C24.254 16.0833 24.4478 17.0917 24.4478 18.2833C24.4478 19.575 24.1561 20.6542 23.5707 21.5146C22.9811 22.3771 22.1123 23.0833 20.954 23.6292C22.5311 24.0854 23.6998 24.8833 24.4748 26.0167C25.254 27.1604 25.6353 28.5292 25.6353 30.1333C25.6353 31.4354 25.3873 32.5542 24.8894 33.4937C24.4096 34.4193 23.7135 35.2155 22.8603 35.8146C21.9764 36.43 20.9892 36.8816 19.9457 37.1479C18.8515 37.4351 17.7248 37.5794 16.5936 37.5771H4.1665V11.9396H16.2561ZM15.5248 22.2979C16.5248 22.2979 17.354 22.0604 18.0082 21.5792C18.6582 21.1042 18.9728 20.3208 18.9728 19.2479C18.9728 18.6521 18.8665 18.1604 18.6582 17.775C18.4552 17.4042 18.1548 17.0959 17.7894 16.8833C17.407 16.6565 16.9849 16.5045 16.5457 16.4354C16.0669 16.3461 15.5806 16.3036 15.0936 16.3083H9.81234V22.2979H15.5248ZM15.8394 33.2125C16.3957 33.2125 16.9248 33.1646 17.4228 33.0521C17.9248 32.9437 18.3707 32.7687 18.7498 32.5083C19.129 32.2583 19.4415 31.9187 19.6665 31.4854C19.8936 31.0562 20.004 30.4958 20.004 29.8229C20.004 28.5021 19.6311 27.5625 18.8936 26.9937C18.154 26.4312 17.1623 26.1521 15.9478 26.1521H9.81234V33.2146L15.8394 33.2125ZM33.6832 33.1271C34.4478 33.8729 35.5498 34.2479 36.9832 34.2479C38.0103 34.2479 38.8978 33.9875 39.6457 33.4708C40.3832 32.9521 40.8332 32.3979 41.0061 31.825H45.4957C44.7748 34.0583 43.6811 35.6542 42.1853 36.6146C40.7082 37.5792 38.9103 38.0583 36.8103 38.0583C35.3478 38.0583 34.0311 37.8229 32.8519 37.3562C31.7201 36.9155 30.6973 36.2346 29.854 35.3604C29.0246 34.4659 28.3834 33.4138 27.9686 32.2667C27.5126 30.9981 27.2868 29.6583 27.3019 28.3104C27.3019 26.9229 27.5332 25.625 27.9873 24.4271C28.4185 23.2691 29.0805 22.2109 29.9332 21.3167C30.7769 20.4417 31.7769 19.7521 32.9415 19.2458C34.1661 18.7308 35.4839 18.474 36.8123 18.4917C38.3832 18.4917 39.7561 18.7958 40.9353 19.4083C42.0788 19.993 43.0703 20.8361 43.8311 21.8708C44.5873 22.8979 45.1269 24.075 45.4623 25.3937C45.7978 26.7104 45.9144 28.0854 45.8186 29.525H32.4207C32.4228 30.9917 32.9165 32.3812 33.6832 33.1271ZM39.5415 23.375C38.9353 22.7042 37.9103 22.3417 36.6561 22.3417C35.8415 22.3417 35.1686 22.4771 34.6269 22.7562C34.1316 23.0064 33.6922 23.3544 33.3353 23.7792C33.0217 24.1648 32.7893 24.6098 32.6519 25.0875C32.5318 25.4858 32.4542 25.8957 32.4207 26.3104H40.7165C40.5957 25.0104 40.1498 24.05 39.5415 23.375ZM31.379 13.6604H41.7728V16.1917H31.379V13.6604Z" fill="#F8F8F8"/>
</svg>
