<svg width="913" height="99" viewBox="0 0 913 99" fill="none" xmlns="http://www.w3.org/2000/svg">
<mask id="path-1-outside-1_256_9" maskUnits="userSpaceOnUse" x="6" y="1" width="243" height="98" fill="black">
<rect fill="white" x="6" y="1" width="243" height="98"/>
<path d="M85.76 88.064C84.48 89.1733 82.688 90.2827 80.384 91.392C78.08 92.416 75.52 93.3547 72.704 94.208C69.9733 95.0613 67.1147 95.744 64.128 96.256C61.2267 96.768 58.496 97.024 55.936 97.024C48.512 97.024 41.8133 95.872 35.84 93.568C29.952 91.264 24.8747 88.064 20.608 83.968C16.4267 79.872 13.184 75.0507 10.88 69.504C8.66133 63.9573 7.552 57.9413 7.552 51.456C7.552 43.776 8.78933 36.9067 11.264 30.848C13.824 24.704 17.28 19.5413 21.632 15.36C26.0693 11.0933 31.1467 7.89333 36.864 5.75999C42.5813 3.54133 48.64 2.432 55.04 2.432C60.416 2.432 65.408 3.072 70.016 4.352C74.624 5.632 78.6773 7.25333 82.176 9.216L77.952 20.608C76.2453 19.584 74.112 18.6453 71.552 17.792C69.0773 16.9387 66.5173 16.256 63.872 15.744C61.2267 15.1467 58.752 14.848 56.448 14.848C50.9867 14.848 46.0373 15.7013 41.6 17.408C37.1627 19.0293 33.3653 21.4187 30.208 24.576C27.0507 27.648 24.6187 31.4027 22.912 35.84C21.2053 40.192 20.352 45.0987 20.352 50.56C20.352 55.5947 21.2053 60.2027 22.912 64.384C24.6187 68.5653 27.0507 72.192 30.208 75.264C33.3653 78.2507 37.12 80.5973 41.472 82.304C45.9093 83.9253 50.7733 84.736 56.064 84.736C59.2213 84.736 62.336 84.4373 65.408 83.84C68.48 83.1573 71.1253 82.2187 73.344 81.024V62.592H54.912V50.688H85.76V88.064ZM109.437 3.45599H169.597V15.36H121.853V43.52H164.477V55.424H121.853V84.096H171.389V96H109.437V3.45599ZM186.153 3.45599H247.593V15.36H222.761V96H210.345V15.36H186.153V3.45599Z"/>
</mask>
<path d="M85.76 88.064L86.4149 88.8197L86.76 88.5206V88.064H85.76ZM80.384 91.392L80.7901 92.3058L80.8041 92.2996L80.8178 92.293L80.384 91.392ZM72.704 94.208L72.414 93.2509L72.4057 93.2535L72.704 94.208ZM64.128 96.256L63.959 95.2704L63.9542 95.2712L64.128 96.256ZM35.84 93.568L35.4756 94.4993L35.4801 94.501L35.84 93.568ZM20.608 83.968L19.9082 84.6824L19.9155 84.6894L20.608 83.968ZM10.88 69.504L9.95144 69.8754L9.9565 69.8876L10.88 69.504ZM11.264 30.848L10.3409 30.4634L10.3382 30.4699L11.264 30.848ZM21.632 15.36L22.3248 16.0811L22.3251 16.0808L21.632 15.36ZM36.864 5.75999L37.2136 6.69698L37.2258 6.69226L36.864 5.75999ZM70.016 4.352L70.2837 3.38848L70.016 4.352ZM82.176 9.216L83.1136 9.56365L83.4108 8.7621L82.6653 8.34385L82.176 9.216ZM77.952 20.608L77.4375 21.4655L78.4707 22.0854L78.8896 20.9557L77.952 20.608ZM71.552 17.792L71.226 18.7374L71.2358 18.7407L71.552 17.792ZM63.872 15.744L63.6517 16.7194L63.6668 16.7228L63.682 16.7258L63.872 15.744ZM41.6 17.408L41.9432 18.3473L41.9511 18.3444L41.959 18.3413L41.6 17.408ZM30.208 24.576L30.9054 25.2928L30.9151 25.2831L30.208 24.576ZM22.912 35.84L23.843 36.2051L23.8453 36.199L22.912 35.84ZM22.912 64.384L21.9862 64.7619L22.912 64.384ZM30.208 75.264L29.5106 75.9808L29.5208 75.9905L30.208 75.264ZM41.472 82.304L41.1069 83.235L41.1178 83.2392L41.1288 83.2433L41.472 82.304ZM65.408 83.84L65.5989 84.8216L65.6119 84.8191L65.6249 84.8162L65.408 83.84ZM73.344 81.024L73.8181 81.9045L74.344 81.6213V81.024H73.344ZM73.344 62.592H74.344V61.592H73.344V62.592ZM54.912 62.592H53.912V63.592H54.912V62.592ZM54.912 50.688V49.688H53.912V50.688H54.912ZM85.76 50.688H86.76V49.688H85.76V50.688ZM85.1051 87.3083C83.9168 88.3382 82.2105 89.4027 79.9502 90.491L80.8178 92.293C83.1655 91.1627 85.0432 90.0085 86.4149 88.8197L85.1051 87.3083ZM79.9779 90.4782C77.7173 91.4829 75.1968 92.4077 72.414 93.251L72.994 95.165C75.8432 94.3016 78.4427 93.3491 80.7901 92.3058L79.9779 90.4782ZM72.4057 93.2535C69.7198 94.0929 66.9045 94.7654 63.959 95.2704L64.297 97.2416C67.3248 96.7226 70.2268 96.0298 73.0023 95.1625L72.4057 93.2535ZM63.9542 95.2712C61.1019 95.7746 58.4298 96.024 55.936 96.024V98.024C58.5622 98.024 61.3515 97.7614 64.3018 97.2408L63.9542 95.2712ZM55.936 96.024C48.6157 96.024 42.0416 94.8882 36.1999 92.635L35.4801 94.501C41.585 96.8558 48.4083 98.024 55.936 98.024V96.024ZM36.2044 92.6368C30.43 90.3772 25.4662 87.2457 21.3005 83.2466L19.9155 84.6894C24.2831 88.8823 29.4741 92.1508 35.4756 94.4992L36.2044 92.6368ZM21.3078 83.2536C17.225 79.2542 14.0573 74.5462 11.8035 69.1204L9.9565 69.8876C12.3107 75.5551 15.6283 80.4898 19.9082 84.6824L21.3078 83.2536ZM11.8085 69.1326C9.64096 63.7138 8.552 57.8251 8.552 51.456H6.552C6.552 58.0576 7.6817 64.2008 9.95152 69.8754L11.8085 69.1326ZM8.552 51.456C8.552 43.8835 9.77185 37.1458 12.1898 31.2261L10.3382 30.4699C7.80682 36.6675 6.552 43.6685 6.552 51.456H8.552ZM12.1871 31.2326C14.6997 25.2023 18.0816 20.1579 22.3248 16.0811L20.9392 14.6389C16.4784 18.9248 12.9483 24.2057 10.3409 30.4634L12.1871 31.2326ZM22.3251 16.0808C26.6648 11.9081 31.6255 8.78202 37.2136 6.6969L36.5144 4.82309C30.6679 7.00465 25.4739 10.2786 20.9389 14.6392L22.3251 16.0808ZM37.2258 6.69226C42.8228 4.5203 48.7583 3.432 55.04 3.432V1.432C48.5217 1.432 42.3399 2.56236 36.5022 4.82773L37.2258 6.69226ZM55.04 3.432C60.3366 3.432 65.2375 4.06251 69.7484 5.31552L70.2837 3.38848C65.5785 2.08149 60.4954 1.432 55.04 1.432V3.432ZM69.7484 5.31552C74.2934 6.57802 78.2699 8.17135 81.6868 10.0881L82.6653 8.34385C79.0848 6.3353 74.9546 4.68597 70.2837 3.38848L69.7484 5.31552ZM81.2384 8.86834L77.0144 20.2603L78.8896 20.9557L83.1136 9.56365L81.2384 8.86834ZM78.4665 19.7505C76.6796 18.6784 74.4748 17.7122 71.8682 16.8433L71.2358 18.7407C73.7492 19.5785 75.811 20.4896 77.4375 21.4655L78.4665 19.7505ZM71.878 16.8466C69.3576 15.9775 66.7521 15.2829 64.062 14.7622L63.682 16.7258C66.2825 17.2291 68.797 17.8998 71.226 18.7374L71.878 16.8466ZM64.0923 14.7686C61.387 14.1577 58.8378 13.848 56.448 13.848V15.848C58.6662 15.848 61.0663 16.1356 63.6517 16.7194L64.0923 14.7686ZM56.448 13.848C50.882 13.848 45.8086 14.7179 41.241 16.4747L41.959 18.3413C46.2661 16.6848 51.0914 15.848 56.448 15.848V13.848ZM41.2568 16.4687C36.6908 18.1371 32.7671 20.6027 29.5009 23.8689L30.9151 25.2831C33.9636 22.2347 37.6345 19.9216 41.9432 18.3473L41.2568 16.4687ZM29.5106 23.8593C26.2417 27.0399 23.733 30.9196 21.9787 35.481L23.8453 36.199C25.5043 31.8857 27.8596 28.2561 30.9054 25.2927L29.5106 23.8593ZM21.981 35.4749C20.2218 39.961 19.352 44.9944 19.352 50.56H21.352C21.352 45.2029 22.1889 40.423 23.843 36.2051L21.981 35.4749ZM19.352 50.56C19.352 55.7094 20.2252 60.4476 21.9862 64.7619L23.8378 64.0061C22.1855 59.9578 21.352 55.4799 21.352 50.56H19.352ZM21.9862 64.7619C23.7435 69.0674 26.2521 72.8103 29.5106 75.9807L30.9054 74.5473C27.8492 71.5737 25.4938 68.0633 23.8378 64.0061L21.9862 64.7619ZM29.5208 75.9905C32.7782 79.0718 36.6445 81.485 41.1069 83.235L41.8371 81.373C37.5955 79.7096 33.9524 77.4295 30.8952 74.5375L29.5208 75.9905ZM41.1288 83.2433C45.6885 84.9093 50.6702 85.736 56.064 85.736V83.736C50.8765 83.736 46.1302 82.9414 41.8152 81.3647L41.1288 83.2433ZM56.064 85.736C59.2848 85.736 62.4634 85.4313 65.5989 84.8216L65.2171 82.8584C62.2086 83.4434 59.1578 83.736 56.064 83.736V85.736ZM65.6249 84.8162C68.7654 84.1183 71.5014 83.1519 73.8181 81.9045L72.8699 80.1435C70.7493 81.2854 68.1946 82.1964 65.1911 82.8638L65.6249 84.8162ZM74.344 81.024V62.592H72.344V81.024H74.344ZM73.344 61.592H54.912V63.592H73.344V61.592ZM55.912 62.592V50.688H53.912V62.592H55.912ZM54.912 51.688H85.76V49.688H54.912V51.688ZM84.76 50.688V88.064H86.76V50.688H84.76ZM109.437 3.45599V2.45599H108.437V3.45599H109.437ZM169.597 3.45599H170.597V2.45599H169.597V3.45599ZM169.597 15.36V16.36H170.597V15.36H169.597ZM121.853 15.36V14.36H120.853V15.36H121.853ZM121.853 43.52H120.853V44.52H121.853V43.52ZM164.477 43.52H165.477V42.52H164.477V43.52ZM164.477 55.424V56.424H165.477V55.424H164.477ZM121.853 55.424V54.424H120.853V55.424H121.853ZM121.853 84.096H120.853V85.096H121.853V84.096ZM171.389 84.096H172.389V83.096H171.389V84.096ZM171.389 96V97H172.389V96H171.389ZM109.437 96H108.437V97H109.437V96ZM109.437 4.45599H169.597V2.45599H109.437V4.45599ZM168.597 3.45599V15.36H170.597V3.45599H168.597ZM169.597 14.36H121.853V16.36H169.597V14.36ZM120.853 15.36V43.52H122.853V15.36H120.853ZM121.853 44.52H164.477V42.52H121.853V44.52ZM163.477 43.52V55.424H165.477V43.52H163.477ZM164.477 54.424H121.853V56.424H164.477V54.424ZM120.853 55.424V84.096H122.853V55.424H120.853ZM121.853 85.096H171.389V83.096H121.853V85.096ZM170.389 84.096V96H172.389V84.096H170.389ZM171.389 95H109.437V97H171.389V95ZM110.437 96V3.45599H108.437V96H110.437ZM186.153 3.45599V2.45599H185.153V3.45599H186.153ZM247.593 3.45599H248.593V2.45599H247.593V3.45599ZM247.593 15.36V16.36H248.593V15.36H247.593ZM222.761 15.36V14.36H221.761V15.36H222.761ZM222.761 96V97H223.761V96H222.761ZM210.345 96H209.345V97H210.345V96ZM210.345 15.36H211.345V14.36H210.345V15.36ZM186.153 15.36H185.153V16.36H186.153V15.36ZM186.153 4.45599H247.593V2.45599H186.153V4.45599ZM246.593 3.45599V15.36H248.593V3.45599H246.593ZM247.593 14.36H222.761V16.36H247.593V14.36ZM221.761 15.36V96H223.761V15.36H221.761ZM222.761 95H210.345V97H222.761V95ZM211.345 96V15.36H209.345V96H211.345ZM210.345 14.36H186.153V16.36H210.345V14.36ZM187.153 15.36V3.45599H185.153V15.36H187.153Z" fill="#F59E34" mask="url(#path-1-outside-1_256_9)"/>
<path d="M276.312 3.45599H288.728V96H276.312V3.45599ZM395.44 98.944L323.888 26.368L327.472 27.264L327.728 96H315.312V0.639992H315.952L386.736 73.472L383.792 72.832L383.536 3.45599H395.824V98.944H395.44ZM456.153 3.45599H517.593V15.36H492.761V96H480.345V15.36H456.153V3.45599ZM527.677 49.792C527.677 43.392 528.872 37.376 531.261 31.744C533.736 26.0267 537.149 20.992 541.501 16.64C545.853 12.2027 550.845 8.74666 556.477 6.272C562.194 3.712 568.338 2.432 574.909 2.432C581.394 2.432 587.453 3.712 593.085 6.272C598.802 8.74666 603.837 12.2027 608.189 16.64C612.626 20.992 616.082 26.0267 618.557 31.744C621.032 37.376 622.269 43.392 622.269 49.792C622.269 56.3627 621.032 62.5067 618.557 68.224C616.082 73.9413 612.626 78.976 608.189 83.328C603.837 87.5947 598.802 90.9653 593.085 93.44C587.453 95.8293 581.394 97.024 574.909 97.024C568.338 97.024 562.194 95.8293 556.477 93.44C550.845 91.0507 545.853 87.7227 541.501 83.456C537.149 79.1893 533.736 74.1973 531.261 68.48C528.872 62.7627 527.677 56.5333 527.677 49.792ZM540.477 49.92C540.477 54.784 541.373 59.3493 543.165 63.616C544.957 67.7973 547.432 71.5093 550.589 74.752C553.746 77.9947 557.416 80.5547 561.597 82.432C565.778 84.224 570.301 85.12 575.165 85.12C579.944 85.12 584.424 84.224 588.605 82.432C592.786 80.5547 596.413 77.9947 599.485 74.752C602.557 71.5093 604.989 67.7973 606.781 63.616C608.573 59.3493 609.469 54.7413 609.469 49.792C609.469 44.928 608.573 40.3627 606.781 36.096C604.989 31.744 602.514 27.9467 599.357 24.704C596.2 21.4613 592.53 18.944 588.349 17.152C584.168 15.2747 579.688 14.336 574.909 14.336C570.045 14.336 565.522 15.2747 561.341 17.152C557.16 19.0293 553.49 21.5893 550.333 24.832C547.176 28.0747 544.744 31.872 543.037 36.224C541.33 40.4907 540.477 45.056 540.477 49.92ZM654.323 63.232C654.323 67.4133 655.304 71.168 657.267 74.496C659.315 77.7387 662.003 80.2987 665.331 82.176C668.659 84.0533 672.414 84.992 676.595 84.992C680.947 84.992 684.83 84.0533 688.243 82.176C691.656 80.2987 694.344 77.7387 696.307 74.496C698.27 71.168 699.251 67.4133 699.251 63.232V3.45599H711.411V63.616C711.411 70.3573 709.832 76.2453 706.675 81.28C703.603 86.3147 699.422 90.1973 694.131 92.928C688.926 95.6587 683.08 97.024 676.595 97.024C670.11 97.024 664.264 95.6587 659.059 92.928C653.854 90.1973 649.715 86.3147 646.643 81.28C643.571 76.2453 642.035 70.3573 642.035 63.616V3.45599H654.323V63.232ZM804.78 89.088C803.244 90.112 801.153 91.264 798.508 92.544C795.863 93.824 792.748 94.8907 789.164 95.744C785.665 96.5973 781.825 97.024 777.644 97.024C770.476 96.9387 763.991 95.6587 758.188 93.184C752.471 90.7093 747.607 87.3387 743.596 83.072C739.585 78.8053 736.471 73.8987 734.252 68.352C732.119 62.72 731.052 56.7467 731.052 50.432C731.052 43.52 732.161 37.1627 734.38 31.36C736.684 25.472 739.884 20.3947 743.98 16.128C748.076 11.776 752.897 8.40533 758.444 6.016C764.076 3.62667 770.22 2.432 776.876 2.432C782.423 2.432 787.457 3.2 791.98 4.73599C796.503 6.18666 800.385 7.93599 803.628 9.98399L798.636 21.504C796.076 19.7973 792.961 18.176 789.292 16.64C785.708 15.104 781.697 14.336 777.26 14.336C772.737 14.336 768.471 15.232 764.46 17.024C760.449 18.816 756.908 21.3333 753.836 24.576C750.764 27.8187 748.332 31.616 746.54 35.968C744.833 40.2347 743.98 44.8427 743.98 49.792C743.98 54.8267 744.748 59.52 746.284 63.872C747.905 68.1387 750.167 71.8507 753.068 75.008C756.055 78.1653 759.639 80.64 763.82 82.432C768.001 84.224 772.695 85.12 777.9 85.12C782.593 85.12 786.775 84.3947 790.444 82.944C794.113 81.4933 797.143 79.872 799.532 78.08L804.78 89.088ZM898.903 3.45599V96H886.615V55.424H838.103V96H825.687V3.45599H838.103V43.648H886.615V3.45599H898.903Z" fill="url(#paint0_radial_256_9)"/>
<defs>
<radialGradient id="paint0_radial_256_9" cx="0" cy="0" r="1" gradientUnits="userSpaceOnUse" gradientTransform="translate(239.5 15.5) rotate(4.28036) scale(649.812 127.963)">
<stop stop-color="#92D4F0"/>
<stop offset="0.467839" stop-color="#A76AEE"/>
<stop offset="1" stop-color="#A960FC"/>
</radialGradient>
</defs>
</svg>
