<svg width="115" height="21" viewBox="0 0 115 21" fill="none" xmlns="http://www.w3.org/2000/svg">
<path d="M113.706 4.27862C90.3867 3.52161 67.2314 1.51644 43.8943 1.60128C30.4797 1.65005 -9.636 1.81755 3.68907 3.36503C25.5912 5.90859 48.1284 5.14809 70.1495 6.64559C78.6817 7.2258 87.1538 8.09011 95.6529 9.01685C98.9236 9.37348 101.49 10.0626 96.269 9.92526C72.9665 9.31225 49.7386 7.11592 26.4328 6.40643C23.9458 6.33072 16.5879 6.4733 18.9993 7.08672C27.8383 9.33522 37.2711 10.0473 46.2793 11.1747C57.1269 12.5324 68.1309 13.2567 78.904 15.1487C82.7738 15.8283 87.933 15.9249 91.5614 17.4319C97.9822 20.0987 77.7154 18.9351 70.7632 19.0079C59.1929 19.1289 47.6228 18.7988 36.0552 18.674" stroke="white" stroke-width="2" stroke-linecap="round"/>
</svg>
