<svg width="24" height="24" viewBox="0 0 24 24" fill="none" xmlns="http://www.w3.org/2000/svg">
<path id="vector_productmanagement" d="M12 16.8C13.36 16.8 14.87 16.53 16.53 15.99C18.19 15.45 20.68 14.5 24 13.14V12.69C24 11.67 23.59 10.85 22.77 10.23C21.95 9.61 21.05 9.44 20.07 9.72C19.73 9.82 19.3852 9.94 19.0356 10.08C18.686 10.22 18.2208 10.4 17.64 10.62C16.42 11.14 15.39 11.5 14.55 11.7C13.71 11.9 12.86 12 12 12C11.1 12 10.23 11.8952 9.39 11.6856C8.55 11.476 7.49 11.1108 6.21 10.59C5.73 10.39 5.3152 10.2252 4.9656 10.0956C4.616 9.966 4.2808 9.8508 3.96 9.75C2.98 9.43 2.0752 9.58 1.2456 10.2C0.416 10.82 0.0008 11.65 0 12.69V13.08C2.62 14.28 4.92 15.2 6.9 15.84C8.88 16.48 10.58 16.8 12 16.8ZM12 24C14.76 24 17.1852 23.2448 19.2756 21.7344C21.366 20.224 22.7808 18.2892 23.52 15.93C20.9 17.05 18.7 17.8752 16.92 18.4056C15.14 18.936 13.5 19.2008 12 19.2C10.48 19.2 8.7452 18.9152 6.7956 18.3456C4.846 17.776 2.7208 16.9608 0.42 15.9C1.1 18.36 2.47 20.3252 4.53 21.7956C6.59 23.266 9.08 24.0008 12 24ZM12 9.6C10.68 9.6 9.55 9.13 8.61 8.19C7.67 7.25 7.2 6.12 7.2 4.8C7.2 3.48 7.67 2.35 8.61 1.41C9.55 0.47 10.68 0 12 0C13.32 0 14.45 0.47 15.39 1.41C16.33 2.35 16.8 3.48 16.8 4.8C16.8 6.12 16.33 7.25 15.39 8.19C14.45 9.13 13.32 9.6 12 9.6Z" fill="#9AE7F1"/>
</svg>
