<svg width="27" height="27" viewBox="0 0 27 27" fill="none" xmlns="http://www.w3.org/2000/svg">
<path d="M25.5235 0L19.5917 1.71213L21.9933 0.0987875C20.4771 0.4388 18.5616 1.10389 16.1541 2.17735L12.2247 6.24314L13.6194 3.403C12.271 4.14735 10.8416 5.12317 9.46424 6.26611L8.54988 9.95916L8.35312 7.22527C6.99315 8.46586 5.7142 9.84429 4.65515 11.2974C3.54229 12.8194 2.67249 14.4276 2.23672 16.03L0.609383 14.9502C0.755218 16.3114 1.20603 17.4946 1.94563 18.5801L0 17.9885C0.442135 19.3382 1.16495 20.2112 2.38718 20.9177C1.70257 22.8302 1.38138 24.829 1.03647 26.822L2.1013 27C3.33627 14.7837 12.0511 6.99553 19.9273 3.54486L20.3267 4.54308C13.2837 7.67326 7.80913 12.9572 4.94451 20.5731C5.99198 20.5788 7.0163 20.4525 7.96538 20.2112L8.24895 16.7135L9.00706 19.9011C9.63786 19.6713 10.2166 19.3957 10.7316 19.074L9.53369 16.5756L11.4319 18.5743C11.8948 18.2068 12.2768 17.7932 12.5661 17.3395C14.3254 14.6114 16.1657 11.9004 19.7885 9.63178L17.1437 8.70134L21.2005 8.82195C21.8602 8.48883 22.5547 8.08105 23.0813 7.69623L20.2051 7.4665L24.5281 6.45565C24.8638 6.12253 25.1763 5.77218 25.4598 5.42183C26.461 4.16171 27.1381 2.8499 26.976 1.65699C26.9008 1.06024 26.542 0.499107 25.9575 0.184939C25.8128 0.110274 25.6566 0.0442246 25.5235 0Z" fill="#9AE7F1"/>
</svg>
