<svg width="29" height="29" viewBox="0 0 29 29" fill="none" xmlns="http://www.w3.org/2000/svg">
<g filter="url(#filter0_d_256_8)">
<path d="M23.7644 9.69448C23.3146 9.26369 22.7246 9.00958 22.1025 8.97879C21.4805 8.948 20.8682 9.14259 20.3781 9.52685L18.3745 3.46197C18.2073 2.9492 17.8952 2.49578 17.476 2.15643C17.0568 1.81707 16.5483 1.60627 16.012 1.54948L6.35837 0.503225C6.10816 0.476982 5.85525 0.507016 5.61815 0.591129C5.38105 0.675242 5.16575 0.811305 4.98802 0.989362C4.81028 1.16742 4.67461 1.38296 4.59093 1.62022C4.50725 1.85747 4.47767 2.11044 4.50437 2.3606L5.55062 12.012C5.60673 12.5486 5.81728 13.0573 6.15673 13.4767C6.49619 13.896 6.94999 14.2079 7.46312 14.3745L13.5269 16.3657C13.1557 16.8197 12.953 17.3881 12.9531 17.9745C12.9552 18.6452 13.2226 19.2878 13.6968 19.762C14.1711 20.2363 14.8137 20.5036 15.4844 20.5057C16.1557 20.5035 16.799 20.2363 17.2742 19.7621L23.7655 13.272C24.0005 13.037 24.1869 12.7581 24.3141 12.4511C24.4413 12.144 24.5068 11.815 24.5068 11.4827C24.5068 11.1503 24.4413 10.8213 24.3141 10.5143C24.1869 10.2073 24.0005 9.9283 23.7655 9.69335L23.7644 9.69448ZM7.81187 13.3057C7.50491 13.2042 7.23357 13.0166 7.03014 12.7653C6.82671 12.514 6.69975 12.2096 6.66437 11.8882L5.65187 2.44947L10.1631 6.96073C10.0826 7.1964 10.0695 7.44989 10.1254 7.6926C10.1812 7.93531 10.3038 8.15758 10.4792 8.33435C10.6002 8.46053 10.7452 8.56128 10.9056 8.63069C11.066 8.7001 11.2387 8.73677 11.4135 8.73856C11.5883 8.74034 11.7617 8.70721 11.9235 8.64109C12.0853 8.57498 12.2323 8.47721 12.3558 8.35353C12.4794 8.22985 12.5769 8.08275 12.6429 7.92086C12.7088 7.75896 12.7417 7.58553 12.7397 7.41074C12.7377 7.23595 12.7008 7.06332 12.6312 6.90297C12.5616 6.74263 12.4607 6.5978 12.3344 6.47697C12.1607 6.30117 11.9401 6.17914 11.6989 6.12547C11.4576 6.0718 11.2061 6.08877 10.9742 6.17435L6.45175 1.65185L15.8905 2.66435C16.2128 2.69664 16.5186 2.82248 16.7702 3.02637C17.0219 3.23025 17.2084 3.50329 17.3069 3.81185L19.4792 10.4043L14.4055 15.4781L7.81187 13.3057ZM20.9845 10.482C21.1819 10.2863 21.4328 10.1535 21.7056 10.1004C21.9784 10.0472 22.2608 10.0761 22.5172 10.1834C22.7736 10.2906 22.9924 10.4714 23.1461 10.703C23.2998 10.9345 23.3815 11.2064 23.3807 11.4843C23.3805 11.6686 23.3438 11.851 23.2725 12.021C23.2012 12.1909 23.0969 12.345 22.9656 12.4743L16.4732 18.9656C16.2057 19.2225 15.8491 19.366 15.4782 19.366C15.1072 19.366 14.7507 19.2225 14.4831 18.9656C14.2229 18.7018 14.077 18.3462 14.077 17.9756C14.077 17.605 14.2229 17.2494 14.4831 16.9856L20.9845 10.482Z" fill="#9AE7F1"/>
</g>
<defs>
<filter id="filter0_d_256_8" x="0.494843" y="0.494019" width="28.012" height="28.0117" filterUnits="userSpaceOnUse" color-interpolation-filters="sRGB">
<feFlood flood-opacity="0" result="BackgroundImageFix"/>
<feColorMatrix in="SourceAlpha" type="matrix" values="0 0 0 0 0 0 0 0 0 0 0 0 0 0 0 0 0 0 127 0" result="hardAlpha"/>
<feOffset dy="4"/>
<feGaussianBlur stdDeviation="2"/>
<feComposite in2="hardAlpha" operator="out"/>
<feColorMatrix type="matrix" values="0 0 0 0 0 0 0 0 0 0 0 0 0 0 0 0 0 0 0.25 0"/>
<feBlend mode="normal" in2="BackgroundImageFix" result="effect1_dropShadow_256_8"/>
<feBlend mode="normal" in="SourceGraphic" in2="effect1_dropShadow_256_8" result="shape"/>
</filter>
</defs>
</svg>
